<?xml version="1.0" encoding="UTF-8"?>
<svg width="24px" height="24px" viewBox="0 0 24 24" version="1.1" xmlns="http://www.w3.org/2000/svg" xmlns:xlink="http://www.w3.org/1999/xlink">
    <title>Perplexity Icon</title>
    <g id="Page-1" stroke="none" stroke-width="1" fill="none" fill-rule="evenodd">
        <g id="perplexity-logo" fill="#3080EC" fill-rule="nonzero">
            <path d="M12.1026,2 C9.00433,2 6.43531,3.31821 4.97842,5.39756 C3.42386,7.60553 3.12428,10.3929 4.12339,12.9012 C4.80429,14.5841 6.00264,15.9322 7.48961,16.7985 C7.4971,16.8029 7.49961,16.8088 7.50169,16.8145 C7.50879,16.8308 7.50879,16.8502 7.49878,16.8666 C7.48961,16.8823 7.47334,16.8915 7.45582,16.893 C6.7533,17.0025 6.04536,17.0025 5.33326,16.8951 C5.33326,16.8951 5.33326,16.8915 5.33326,16.893 C5.30882,16.893 5.28606,16.902 5.27065,16.9197 C5.25482,16.9375 5.24858,16.9616 5.25483,16.9838 C5.30257,17.1332 5.39931,17.3204 5.5427,17.5273 C5.84104,17.9441 6.27795,18.3534 6.80617,18.7224 C7.86532,19.4591 9.2249,19.9347 10.7143,19.9952 C10.7234,19.9968 10.7318,19.9984 10.74,20 L13.26,20 C13.2682,19.9984 13.2767,19.9968 13.2857,19.9952 C15.5326,19.9009 17.4264,19.0271 18.7185,17.71 C20.5288,15.8594 21.1722,13.3082 20.5539,10.9306 C19.9355,8.553 18.1452,6.58398 15.8524,5.77273 C14.6873,5.33992 13.422,5.18018 12.1694,5.29961 C12.1485,5.30112 12.1262,5.30112 12.1053,5.29961 C12.0823,5.29734 12.0601,5.29106 12.0413,5.28128 C12.0224,5.27149 12.0075,5.25841 11.9976,5.24291 C11.9878,5.22741 11.9833,5.20979 11.9847,5.19221 C11.9861,5.17462 11.9932,5.15754 12.0055,5.14316 L12.9347,4.08398 C12.9459,4.07074 12.9612,4.06062 12.9789,4.05497 C12.9966,4.04931 13.0158,4.0483 13.0339,4.05205 C13.7266,4.17844 14.4001,4.36328 15.0401,4.6125 C17.2222,5.39756 18.9175,6.83594 19.9355,8.68711 C21.0534,10.7188 21.3113,13.1013 20.6429,15.2964 C19.8502,17.9063 17.5491,19.8833 14.5535,20.6473 C13.6701,20.8615 12.7617,20.9717 11.8513,20.986 C11.8307,20.9876 11.8107,20.9943 11.7947,21.0055 C11.7788,21.0168 11.7678,21.0319 11.7634,21.0488 C11.7412,21.1279 11.73,21.208 11.73,21.2886 C11.73,21.6823 12.0474,22 12.4399,22 C12.8324,22 13.1498,21.6823 13.1498,21.2886 C13.1498,21.208 13.1387,21.1279 13.1164,21.0488 C13.112,21.0319 13.101,21.0168 13.0851,21.0055 C13.0691,20.9943 13.0491,20.9876 13.0285,20.986 C12.1182,20.9717 11.2098,20.8615 10.3263,20.6473 C7.33072,19.8833 5.02968,17.9063 4.23693,15.2964 C3.56855,13.1013 3.82646,10.7188 4.94444,8.68711 C5.9625,6.83594 7.65776,5.39756 9.8399,4.6125 C10.4798,4.36328 11.1533,4.17844 11.846,4.05205 C11.8642,4.0483 11.8834,4.04931 11.9011,4.05497 C11.9187,4.06062 11.934,4.07074 11.9452,4.08398 L12.8744,5.14316 C12.8867,5.15754 12.8938,5.17463 12.8952,5.19221 C12.8966,5.20979 12.8922,5.22741 12.8823,5.24291 C12.8724,5.25841 12.8575,5.27149 12.8386,5.28128 C12.8198,5.29106 12.7976,5.29734 12.7746,5.29961 C12.7538,5.30112 12.7314,5.30112 12.7106,5.29961 C11.4579,5.18018 10.1926,5.33992 9.02759,5.77273 C6.73474,6.58398 4.9444,8.553 4.32604,10.9306 C3.70768,13.3082 4.35112,15.8594 6.16139,17.71 C7.45348,19.0271 9.34728,19.9009 11.5942,19.9952 C11.6033,19.9968 11.6117,19.9984 11.62,20 L12,20 L12.38,20 C12.3882,19.9984 12.3967,19.9968 12.4057,19.9952 C13.8952,19.9347 15.2548,19.4591 16.3139,18.7224 C16.8421,18.3534 17.279,17.9441 17.5773,17.5273 C17.7207,17.3204 17.8175,17.1332 17.8652,16.9838 C17.8714,16.9616 17.8652,16.9375 17.8494,16.9197 C17.834,16.902 17.8112,16.893 17.7867,16.893 C17.7867,16.8915 17.7867,16.8951 17.7867,16.8951 C17.0746,17.0025 16.3667,17.0025 15.6642,16.893 C15.6466,16.8915 15.6304,16.8823 15.6212,16.8666 C15.6112,16.8502 15.6112,16.8308 15.6183,16.8145 C15.6204,16.8088 15.6229,16.8029 15.6304,16.7985 C17.1174,15.9322 18.3157,14.5841 18.9966,12.9012 C19.9957,10.3929 19.6961,7.60553 18.1416,5.39756 C16.6847,3.31821 14.1157,2 11.0174,2 L12.1026,2 Z M11.9763,8.24023 C13.9894,8.24023 15.6271,9.88232 15.6271,11.9014 C15.6271,13.9204 13.9894,15.5625 11.9763,15.5625 C9.96315,15.5625 8.32553,13.9204 8.32553,11.9014 C8.32553,9.88232 9.96315,8.24023 11.9763,8.24023 Z M11.9763,9.79297 C10.8066,9.79297 9.87232,10.7295 9.87232,11.9014 C9.87232,13.0732 10.8066,14.0098 11.9763,14.0098 C13.1459,14.0098 14.0803,13.0732 14.0803,11.9014 C14.0803,10.7295 13.1459,9.79297 11.9763,9.79297 Z" id="Shape"></path>
        </g>
    </g>
</svg>