<?xml version="1.0" encoding="UTF-8"?>
<svg width="24px" height="24px" viewBox="0 0 24 24" version="1.1" xmlns="http://www.w3.org/2000/svg" xmlns:xlink="http://www.w3.org/1999/xlink">
    <title>OpenAI Icon</title>
    <g id="Page-1" stroke="none" stroke-width="1" fill="none" fill-rule="evenodd">
        <g id="openai-logo" fill="#10A37F" fill-rule="nonzero">
            <path d="M16.037,3.587 C17.0679,1.8353 19.4018,1.3044 21.1535,2.3353 C22.9052,3.3662 23.4361,5.7001 22.4052,7.4518 C21.9743,8.1826 21.3435,8.7134 20.6127,9.0443 C20.8331,9.8138 20.9386,10.6007 20.9386,11.3826 C20.9386,15.8177 17.3486,19.4077 12.9135,19.4077 C12.1316,19.4077 11.3447,19.3022 10.5752,19.0818 C10.2443,19.8126 9.7134,20.4435 8.9826,20.8743 C7.2309,21.9052 4.897,21.3743 3.8661,19.6226 C2.8353,17.8709 3.3661,15.537 5.1178,14.5061 C5.8486,14.0753 6.6795,13.9071 7.4661,13.9618 C7.5754,13.2857 7.7947,12.6192 8.1178,11.9848 C8.6795,10.9539 9.5104,10.1548 10.4878,9.6238 C10.432,9.0306 10.4846,8.4255 10.6437,7.839 C10.9745,6.6391 11.7144,5.6479 12.6985,5.0067 C14.4502,3.9758 16.7841,4.5067 17.815,6.2584 C18.2459,6.9892 18.414,7.8201 18.3594,8.6068 C19.0354,8.7161 19.7019,8.9353 20.3363,9.2584 C20.9197,8.9339 21.425,8.4764 21.8196,7.8984 C22.6309,6.5063 22.2196,4.7108 20.8275,3.8995 C19.4353,3.0883 17.6398,3.4996 16.8285,4.8918 C16.434,5.4698 16.2483,6.1416 16.2667,6.8074 C15.6832,7.1319 15.178,7.5894 14.7834,8.1674 C14.765,7.5016 14.9507,6.8298 15.3453,6.2518 C15.4811,6.0334 15.644,5.8404 15.8286,5.6704 C16.0069,5.5057 16.2002,5.3642 16.4052,5.2479 C16.8075,5.0111 17.2555,4.8769 17.7153,4.8429 C17.5178,4.2957 17.1452,3.8298 16.6453,3.5187 C15.2531,2.7075 13.4576,3.1188 12.6463,4.5109 C11.835,5.9031 12.2463,7.6986 13.6385,8.5099 C14.2165,8.9044 14.8883,9.0901 15.5541,9.0718 C15.8785,9.6553 16.0118,10.3271 15.9284,11.0069 C15.8785,11.4069 15.7539,11.79 15.563,12.1346 C14.4765,13.9149 14.9905,16.2341 16.7708,17.3206 C18.5511,18.4071 20.8703,17.893 21.9568,16.1128 C23.0433,14.3325 22.5292,12.0133 20.749,10.9268 C20.4044,10.7358 20.0213,10.6112 19.6214,10.5614 C19.6713,10.8463 19.6963,11.1363 19.6963,11.4313 C19.6963,15.0663 16.7214,18.0413 13.0863,18.0413 C9.4513,18.0413 6.4763,15.0663 6.4763,11.4313 C6.4763,11.1363 6.5013,10.8463 6.5513,10.5614 C6.1513,10.6112 5.7682,10.7358 5.4236,10.9268 C3.6433,12.0133 3.1292,14.3325 4.2157,16.1128 C5.3022,17.893 7.6214,18.4071 9.4017,17.3206 C9.7464,17.1296 10.0426,16.8865 10.2851,16.6033 C10.9386,16.9158 11.6399,17.1035 12.37,17.1531 C12.4249,16.0359 12.8913,14.9657 13.7452,14.1491 C14.599,13.3326 15.6865,12.9122 16.8037,12.9123 C16.854,12.9123 16.9041,12.9139 16.9541,12.9171 C16.9753,12.6263 16.9503,12.3299 16.8764,12.0359 C16.5455,10.8359 15.4348,10.0675 14.2348,10.3984 C13.0348,10.7293 12.2664,11.84 12.5973,13.04 C12.6713,13.334 12.7996,13.6022 12.9682,13.835 C11.8994,14.0348 11.066,14.87 10.8688,15.9393 C10.7739,16.0342 10.6763,16.125 10.5755,16.2106 C9.7642,16.8981 8.6231,16.8981 7.8118,16.2106 C7.0004,15.523 7.0004,14.382 7.6879,13.5706 C8.1025,13.0712 8.7116,12.8079 9.3283,12.8143 C9.6277,12.2306 10.0902,11.7297 10.6688,11.3935 C10.7636,11.3381 10.86,11.2875 10.9577,11.2419 C11.2971,9.6983 10.4458,8.1237 8.9022,7.7844 C7.3586,7.445 5.784,8.2963 5.4446,9.8399 C5.399,9.9376 5.3647,10.0373 5.3381,10.1377 C4.9132,10.3051 4.5257,10.5704 4.2092,10.9268 C3.8147,11.5048 3.629,12.1767 3.6473,12.8425 C2.7723,12.9518 1.9197,12.7261 1.2092,12.1906 C-0.5425,10.9507 -0.0116,8.6168 1.2283,6.865 C2.4682,5.1133 4.8021,4.5824 6.5539,5.8223 C6.8334,6.0123 7.0793,6.2364 7.2944,6.4886 C7.7648,6.2842 8.2535,6.1292 8.7534,6.0266 C8.7534,6.0266 8.7534,6.0266 8.7534,6.0266 C8.7982,5.4334 8.9453,4.8282 9.196,4.2373 C9.6077,3.2064 10.3177,2.392 11.1869,1.8657 C12.9386,0.8348 15.2725,1.3657 16.3035,3.1174 C16.6343,3.6892 16.8024,4.3046 16.8142,4.9159 C16.9034,4.9071 16.9936,4.9028 17.0845,4.9028 C17.0845,4.9028 17.0844,4.9028 17.0844,4.9028 C16.703,4.5175 16.4146,4.0651 16.237,3.5665 L16.037,3.587 Z" id="Shape"></path>
        </g>
    </g>
</svg>